<?xml version="1.0" encoding="utf-8"?>
<?xml-stylesheet type="text/xsl" href="rss1.xsl"?>
<rss version="2.0" xmlns:atom="http://www.w3.org/2005/Atom" xmlns:content="http://purl.org/rss/1.0/modules/content/" xmlns:dc="http://purl.org/dc/elements/1.1/" xmlns:media="http://search.yahoo.com/mrss/">
<channel>
 <title>Getty</title>
 <link>http://www.gettyimg.com/</link>
 <atom:link href="http://www.gettyimg.com/" rel="self" type="application/rss+xml" />

 
                <item>
                <title><![CDATA[【Music Videos】Ariana Grande - Yes, And? [4K MasterRip | HEVC 10-bit | PCM 24-bit 48 kHz | DD+ Dolby Atmos]]]></title>
                <link><![CDATA[https://sharemania.us/threads/ariana-grande-yes-and-4k-masterrip-hevc-10-bit-pcm-24-bit-48-khz-dd-dolby-atmos.236101/]]></link>
                <description><![CDATA[<article>
<blockquote class="messageText SelectQuoteContainer ugc baseHtml">
<b><img src="https://images2.imgbox.com/68/dc/WRcfT26A_o.jpg" class="bbCodeImage LbImage" alt="[​IMG]" data-url="https://images2.imgbox.com/68/dc/WRcfT26A_o.jpg" style=""> <br>
<br>
Genre: <span style="color: #0059b3">Electronic, Pop</span> <br>
Style: <span style="color: #0059b3">House, Dance-pop</span><br>
Year: <span style="color: #0059b3">2024</span><br>
Video Source: <span style="color: #0059b3">Master, ProRes, 2160p thanks meloman67</span><br>
Audio Source: <span style="color: #0059b3">Qobuz and Amazon Music, thanks moi, taytayswift133 &amp; Yennefer</span></b><br>
<br>
"<b>Yes, And?</b>" is a song by the American singer Ariana Grande and the lead single from her upcoming seventh studio album, <i>Eternal Sunshine</i> (2024). It was released on January 12, 2024, by Republic Records. Written and produced by Grande, Max Martin and Ilya Salmanzadeh, the song is a house and pop track with ballroom elements. The lyrics focus on overcoming negativity, addressing a range of negative press Grande has received in 2022–2023.<br>
<br>
Music critics complimented the danceability and groove of "Yes, And?". They noted inspiration from Madonna's 1990 single "Vogue" (1990), while the accompanying music video drew inspiration from that of Paula Abdul's "Cold Hearted" (1989). Commercially, the single peaked at number one in Lithuania and within the top-five in six other countries.<br>
<br>
Directed by Christian Breslauer and filmed in the Grand Hall of Powerhouse Arts in Brooklyn, New York City, the music video for "Yes, And?" was released via Grande's Vevo channel on YouTube at 10:00 AM EST (Eastern Standard Time) on January 12, ten hours after the song's release. The visuals were inspired by Paula Abdul's "Cold Hearted" (1989) and its "late-'80s energy". One scene in the video for "Yes, And?" features several statues of Grande, which Callie Ahlgrim and Lauren Edmonds of <i>Business Insider</i> observed referenced the cover artwork of her previous albums, including <i>Yours Truly</i> (2013), <i>My Everything</i> (2014), and <i>Thank U, Next</i>.<br>
<br>
<b>Release Info</b><br>
The video track is encoded directly from the Master (ProRes, 2160p) with HandBrake (CQ20).<br>
I've removed the intro and outro to match the album version and encoded it to HEVC 10-bit.<br>
The PCM tracks are lossless (Qobuz Hi-Res 24-bit 48 kHz), synced with Adobe Audition.<br>
The Atmos tracks are lossy (Dolby Digital Plus), synced to the video track by muxing.<br>
The timed lyrics are synced &amp; edited. Enable the subtitles to see the lyrics.<br>
<br>
<b><span style="color: #ff0000">Note:</span> This release contains 7 audio tracks:</b><br>
Track #1: Explicit Version - PCM 24-bit 48 kHz<br>
Track #2: Clean Version - PCM 24-bit 48 kHz<br>
Track #3: Instrumental Version - PCM 16-bit 44.1 kHz<br>
Track #4: Original (from the Master) - PCM 16-bit 48 kHz<br>
Track #5: Explicit Version - Dolby Digital Plus with Dolby Atmos<br>
Track #6: Clean Version - Dolby Digital Plus with Dolby Atmos<br>
Track #7: Instrumental Version - Dolby Digital Plus with Dolby Atmos<br>
<br>
<div class="ToggleTriggerAnchor bbCodeSpoilerContainer">
<button type="button" class="button bbCodeSpoilerButton ToggleTrigger Tooltip JsOnly" data-target="> .SpoilerTarget"><span>Spoiler: <span class="SpoilerTitle">Media Info</span></span></button>
<div class="SpoilerTarget bbCodeSpoilerText">
<div class="bbCodeBlock bbCodeCode">
<div class="type">Code:</div>
<pre>General
Unique ID                      : 190472052616635570354347725162446809505 (0x8F4B953D8B1D20FC86A80D1226A369A1)
Complete name                  : Ariana Grande - Yes, And.mkv
Format                         : Matroska
Format version                 : Version 4 / Version 2
File size                      : 762 MiB
Duration                       : 3 min 35 s
Overall bit rate               : 29.6 Mb/s
Frame rate                     : 23.976 FPS
Movie name                     : yes, and? [Clean]
Encoded date                   : 2024-01-19 19:00:36 UTC
Writing application            : mkvmerge v82.0 ('I'm The President') 64-bit
Writing library                : libebml v1.4.5 + libmatroska v1.7.1

Video
ID                             : 1
Format                         : HEVC
Format/Info                    : High Efficiency Video Coding
Format profile                 : Main 10@L5@Main
Codec ID                       : V_MPEGH/ISO/HEVC
Duration                       : 3 min 33 s
Bit rate                       : 20.0 Mb/s
Width                          : 2 876 pixels
Height                         : 2 160 pixels
Display aspect ratio           : 4:3
Frame rate mode                : Constant
Frame rate                     : 23.976 (24000/1001) FPS
Color space                    : YUV
Chroma subsampling             : 4:2:0
Bit depth                      : 10 bits
Bits/(Pixel*Frame)             : 0.135
Stream size                    : 510 MiB (67%)
Default                        : Yes
Forced                         : No
Color range                    : Limited
Color primaries                : BT.709
Transfer characteristics       : BT.709
Matrix coefficients            : BT.709

Audio #1
ID                             : 2
Format                         : PCM
Format settings                : Little / Signed
Codec ID                       : A_PCM/INT/LIT
Duration                       : 3 min 33 s
Bit rate mode                  : Constant
Bit rate                       : 2 304 kb/s
Channel(s)                     : 2 channels
Sampling rate                  : 48.0 kHz
Frame rate                     : 25.000 FPS (1920 SPF)
Bit depth                      : 24 bits
Stream size                    : 58.7 MiB (8%)
Title                          : Explicit 24-bit 48 kHz
Language                       : English
Default                        : Yes
Forced                         : No

Audio #2
ID                             : 3
Format                         : PCM
Format settings                : Little / Signed
Codec ID                       : A_PCM/INT/LIT
Duration                       : 3 min 33 s
Bit rate mode                  : Constant
Bit rate                       : 2 304 kb/s
Channel(s)                     : 2 channels
Sampling rate                  : 48.0 kHz
Frame rate                     : 25.000 FPS (1920 SPF)
Bit depth                      : 24 bits
Stream size                    : 58.7 MiB (8%)
Title                          : Clean 24-bit 48 kHz
Language                       : English
Default                        : No
Forced                         : No

Audio #3
ID                             : 4
Format                         : PCM
Format settings                : Little / Signed
Codec ID                       : A_PCM/INT/LIT
Duration                       : 3 min 33 s
Bit rate mode                  : Constant
Bit rate                       : 1 411.2 kb/s
Channel(s)                     : 2 channels
Sampling rate                  : 44.1 kHz
Frame rate                     : 25.000 FPS (1764 SPF)
Bit depth                      : 16 bits
Stream size                    : 35.9 MiB (5%)
Title                          : Instrumental 16-bit 44.1 kHz
Language                       : English
Default                        : No
Forced                         : No

Audio #4
ID                             : 5
Format                         : PCM
Format settings                : Little / Signed
Codec ID                       : A_PCM/INT/LIT
Duration                       : 3 min 33 s
Bit rate mode                  : Constant
Bit rate                       : 1 536 kb/s
Channel(s)                     : 2 channels
Sampling rate                  : 48.0 kHz
Frame rate                     : 25.000 FPS (1920 SPF)
Bit depth                      : 16 bits
Delay relative to video        : 7 ms
Stream size                    : 39.1 MiB (5%)
Title                          : Original 16-bit 48 kHz
Language                       : English
Default                        : No
Forced                         : No

Audio #5
ID                             : 6
Format                         : E-AC-3 JOC
Format/Info                    : Enhanced AC-3 with Joint Object Coding
Commercial name                : Dolby Digital Plus with Dolby Atmos
Codec ID                       : A_EAC3
Duration                       : 3 min 35 s
Bit rate mode                  : Constant
Bit rate                       : 768 kb/s
Channel(s)                     : 6 channels
Channel layout                 : L R C LFE Ls Rs
Sampling rate                  : 48.0 kHz
Frame rate                     : 31.250 FPS (1536 SPF)
Compression mode               : Lossy
Delay relative to video        : 918 ms
Stream size                    : 19.7 MiB (3%)
Title                          : Explicit Dolby Atmos
Language                       : English
Service kind                   : Complete Main
Default                        : No
Forced                         : No
Complexity index               : 16
Number of dynamic objects      : 15
Bed channel count              : 1 channel
Bed channel configuration      : LFE

Audio #6
ID                             : 7
Format                         : E-AC-3 JOC
Format/Info                    : Enhanced AC-3 with Joint Object Coding
Commercial name                : Dolby Digital Plus with Dolby Atmos
Codec ID                       : A_EAC3
Duration                       : 3 min 35 s
Bit rate mode                  : Constant
Bit rate                       : 768 kb/s
Channel(s)                     : 6 channels
Channel layout                 : L R C LFE Ls Rs
Sampling rate                  : 48.0 kHz
Frame rate                     : 31.250 FPS (1536 SPF)
Compression mode               : Lossy
Delay relative to video        : 918 ms
Stream size                    : 19.7 MiB (3%)
Title                          : Clean Dolby Atmos
Language                       : English
Service kind                   : Complete Main
Default                        : No
Forced                         : No
Complexity index               : 16
Number of dynamic objects      : 15
Bed channel count              : 1 channel
Bed channel configuration      : LFE

Audio #7
ID                             : 8
Format                         : E-AC-3 JOC
Format/Info                    : Enhanced AC-3 with Joint Object Coding
Commercial name                : Dolby Digital Plus with Dolby Atmos
Codec ID                       : A_EAC3
Duration                       : 3 min 32 s
Bit rate mode                  : Constant
Bit rate                       : 768 kb/s
Channel(s)                     : 6 channels
Channel layout                 : L R C LFE Ls Rs
Sampling rate                  : 48.0 kHz
Frame rate                     : 31.250 FPS (1536 SPF)
Compression mode               : Lossy
Delay relative to video        : 918 ms
Stream size                    : 19.4 MiB (3%)
Title                          : Instrumental Dolby Atmos
Language                       : English
Service kind                   : Complete Main
Default                        : No
Forced                         : No
Complexity index               : 16
Number of dynamic objects      : 15
Bed channel count              : 1 channel
Bed channel configuration      : LFE

Text
ID                             : 9
Format                         : UTF-8
Codec ID                       : S_TEXT/UTF8
Codec ID/Info                  : UTF-8 Plain Text
Duration                       : 2 min 43 s
Bit rate                       : 87 b/s
Frame rate                     : 0.300 FPS
Count of elements              : 49
Stream size                    : 1.75 KiB (0%)
Title                          : Lyrics
Language                       : English
Default                        : No
Forced                         : No
</pre>
</div></div>
</div><br>
<b>Note to the peeps @ RuTracker: Give credit if you post the work of someone else!</b><br>
- Hurby4 aka ADHDerby<br>
<br>
<div class="bbCodeBlock bbCodeVfcHH HiddenContent">
<div class="attribution type">Hidden Content:</div>
<blockquote>You must reply before you can see the hidden data contained here.</blockquote>
</div>
<div class="messageTextEndMarker">&nbsp;</div>
</blockquote>
</article>]]></description>
                <author><![CDATA[ADHDerby]]></author>
                </item>

                </channel></rss>